<mxfile host="app.diagrams.net" modified="2020-04-14T09:40:20.395Z" agent="5.0 (X11)" etag="lJqwuS-uQocG69f2b8uV" version="12.9.12" type="github">
  <diagram id="Kfs1H25m5EORTKNw9j7Z" name="Page-1">
    <mxGraphModel dx="1630" dy="69" grid="1" gridSize="10" guides="1" tooltips="1" connect="1" arrows="1" fold="1" page="1" pageScale="1" pageWidth="1169" pageHeight="827" math="0" shadow="0">
      <root>
        <mxCell id="0" />
        <mxCell id="1" parent="0" />
        <mxCell id="L46YAxD7cRD_iRhM08Rc-1" value="&lt;div&gt;&lt;font style=&quot;font-size: 14px&quot;&gt;&lt;b&gt;S3 &lt;br&gt;&lt;/b&gt;&lt;/font&gt;&lt;/div&gt;&lt;div&gt;&lt;font style=&quot;font-size: 14px&quot;&gt;&lt;b&gt;Store&lt;/b&gt;&lt;/font&gt;&lt;/div&gt;" style="shape=cylinder;whiteSpace=wrap;html=1;boundedLbl=1;backgroundOutline=1;strokeColor=#3333FF;strokeWidth=2;fillColor=#FFFFFF;fontColor=#3333FF;" parent="1" vertex="1">
          <mxGeometry x="422" y="1308" width="60" height="80" as="geometry" />
        </mxCell>
        <mxCell id="L46YAxD7cRD_iRhM08Rc-2" value="&lt;div&gt;&lt;font style=&quot;font-size: 14px&quot;&gt;&lt;b&gt;DB&lt;br&gt;&lt;/b&gt;&lt;/font&gt;&lt;/div&gt;&lt;div&gt;&lt;font style=&quot;font-size: 14px&quot;&gt;&lt;b&gt;Store&lt;/b&gt;&lt;/font&gt;&lt;/div&gt;" style="shape=cylinder;whiteSpace=wrap;html=1;boundedLbl=1;backgroundOutline=1;strokeColor=#CCCCCC;strokeWidth=2;fillColor=#FFFFFF;fontColor=#B3B3B3;" parent="1" vertex="1">
          <mxGeometry x="422" y="1198" width="60" height="80" as="geometry" />
        </mxCell>
        <mxCell id="L46YAxD7cRD_iRhM08Rc-3" value="&lt;div&gt;&lt;font style=&quot;font-size: 14px&quot;&gt;&lt;b&gt;&lt;font style=&quot;font-size: 14px&quot;&gt;Format&lt;br&gt;&lt;/font&gt;&lt;/b&gt;&lt;/font&gt;&lt;/div&gt;&lt;div&gt;&lt;font style=&quot;font-size: 14px&quot;&gt;&lt;b&gt;&lt;font style=&quot;font-size: 14px&quot;&gt;Reader &lt;br&gt;&lt;/font&gt;&lt;/b&gt;&lt;/font&gt;&lt;/div&gt;" style="ellipse;whiteSpace=wrap;html=1;aspect=fixed;strokeColor=#3333FF;strokeWidth=2;fillColor=#FFFFFF;fontColor=#3333FF;" parent="1" vertex="1">
          <mxGeometry x="595.75" y="1208" width="60" height="60" as="geometry" />
        </mxCell>
        <mxCell id="L46YAxD7cRD_iRhM08Rc-4" value="&lt;div style=&quot;font-size: 14px&quot;&gt;&lt;font style=&quot;font-size: 14px&quot;&gt;&lt;b&gt;&lt;font style=&quot;font-size: 14px&quot;&gt;Memory&lt;/font&gt;&lt;/b&gt;&lt;/font&gt;&lt;/div&gt;&lt;div style=&quot;font-size: 14px&quot;&gt;&lt;font style=&quot;font-size: 14px&quot;&gt;&lt;b&gt;&lt;font style=&quot;font-size: 14px&quot;&gt;Store&lt;br&gt;&lt;/font&gt;&lt;/b&gt;&lt;/font&gt;&lt;/div&gt;" style="shape=cube;whiteSpace=wrap;html=1;boundedLbl=1;backgroundOutline=1;darkOpacity=0.05;darkOpacity2=0.1;strokeColor=#CCCCCC;strokeWidth=2;fillColor=#FFFFFF;fontColor=#B3B3B3;" parent="1" vertex="1">
          <mxGeometry x="419.5" y="1422" width="85" height="66" as="geometry" />
        </mxCell>
        <mxCell id="L46YAxD7cRD_iRhM08Rc-5" value="&lt;div&gt;&lt;font style=&quot;font-size: 14px&quot;&gt;&lt;b&gt;&lt;font style=&quot;font-size: 14px&quot;&gt;File&lt;/font&gt;&lt;/b&gt;&lt;/font&gt;&lt;/div&gt;&lt;div&gt;&lt;font style=&quot;font-size: 14px&quot;&gt;&lt;b&gt;&lt;font style=&quot;font-size: 14px&quot;&gt;Reader&lt;/font&gt;&lt;/b&gt;&lt;/font&gt;&lt;/div&gt;" style="ellipse;whiteSpace=wrap;html=1;aspect=fixed;strokeColor=#3333FF;strokeWidth=2;fillColor=#FFFFFF;fontColor=#3333FF;" parent="1" vertex="1">
          <mxGeometry x="595.75" y="1345" width="60" height="60" as="geometry" />
        </mxCell>
        <mxCell id="L46YAxD7cRD_iRhM08Rc-6" value="&lt;div&gt;&lt;font style=&quot;font-size: 14px&quot;&gt;&lt;b&gt;&lt;font style=&quot;font-size: 14px&quot;&gt;Memory&lt;/font&gt;&lt;/b&gt;&lt;/font&gt;&lt;/div&gt;&lt;div&gt;&lt;font style=&quot;font-size: 14px&quot;&gt;&lt;b&gt;&lt;font style=&quot;font-size: 14px&quot;&gt;Reader&lt;/font&gt;&lt;/b&gt;&lt;/font&gt;&lt;/div&gt;" style="ellipse;whiteSpace=wrap;html=1;aspect=fixed;strokeColor=#CCCCCC;strokeWidth=2;fillColor=#FFFFFF;fontColor=#B3B3B3;" parent="1" vertex="1">
          <mxGeometry x="598.25" y="1415" width="60" height="60" as="geometry" />
        </mxCell>
        <mxCell id="L46YAxD7cRD_iRhM08Rc-7" value="" style="endArrow=classic;html=1;exitX=1;exitY=0.5;exitDx=0;exitDy=0;entryX=0;entryY=0.5;entryDx=0;entryDy=0;strokeColor=#CCCCCC;strokeWidth=2;curved=1;fontColor=#B3B3B3;" parent="1" source="L46YAxD7cRD_iRhM08Rc-2" target="L46YAxD7cRD_iRhM08Rc-3" edge="1">
          <mxGeometry width="50" height="50" relative="1" as="geometry">
            <mxPoint x="582" y="1478" as="sourcePoint" />
            <mxPoint x="632" y="1428" as="targetPoint" />
            <Array as="points">
              <mxPoint x="512" y="1288" />
            </Array>
          </mxGeometry>
        </mxCell>
        <mxCell id="L46YAxD7cRD_iRhM08Rc-8" value="" style="endArrow=classic;html=1;exitX=1;exitY=0.3;exitDx=0;exitDy=0;entryX=0;entryY=0.5;entryDx=0;entryDy=0;strokeColor=#3333FF;strokeWidth=2;curved=1;fontColor=#3333FF;" parent="1" source="L46YAxD7cRD_iRhM08Rc-1" target="L46YAxD7cRD_iRhM08Rc-3" edge="1">
          <mxGeometry width="50" height="50" relative="1" as="geometry">
            <mxPoint x="492" y="1248" as="sourcePoint" />
            <mxPoint x="572" y="1328" as="targetPoint" />
            <Array as="points">
              <mxPoint x="519.5" y="1318" />
            </Array>
          </mxGeometry>
        </mxCell>
        <mxCell id="L46YAxD7cRD_iRhM08Rc-9" value="" style="endArrow=classic;html=1;exitX=1;exitY=0.7;exitDx=0;exitDy=0;entryX=0;entryY=0.5;entryDx=0;entryDy=0;strokeColor=#3333FF;strokeWidth=2;curved=1;fontColor=#3333FF;" parent="1" source="L46YAxD7cRD_iRhM08Rc-1" target="L46YAxD7cRD_iRhM08Rc-5" edge="1">
          <mxGeometry width="50" height="50" relative="1" as="geometry">
            <mxPoint x="492" y="1348" as="sourcePoint" />
            <mxPoint x="572" y="1328" as="targetPoint" />
            <Array as="points">
              <mxPoint x="529.5" y="1364" />
            </Array>
          </mxGeometry>
        </mxCell>
        <mxCell id="L46YAxD7cRD_iRhM08Rc-10" value="" style="endArrow=classic;html=1;exitX=0;exitY=0;exitDx=85;exitDy=43;entryX=0;entryY=0.5;entryDx=0;entryDy=0;strokeColor=#CCCCCC;strokeWidth=2;exitPerimeter=0;curved=1;fontColor=#B3B3B3;" parent="1" source="L46YAxD7cRD_iRhM08Rc-4" target="L46YAxD7cRD_iRhM08Rc-6" edge="1">
          <mxGeometry width="50" height="50" relative="1" as="geometry">
            <mxPoint x="492" y="1378" as="sourcePoint" />
            <mxPoint x="592" y="1372" as="targetPoint" />
            <Array as="points">
              <mxPoint x="532" y="1442" />
            </Array>
          </mxGeometry>
        </mxCell>
        <mxCell id="L46YAxD7cRD_iRhM08Rc-11" value="&lt;font&gt;&lt;b&gt;&lt;font style=&quot;font-size: 14px&quot;&gt;ORCH&lt;/font&gt;&lt;/b&gt;&lt;/font&gt;" style="ellipse;whiteSpace=wrap;html=1;aspect=fixed;strokeColor=#CCCCCC;strokeWidth=2;fillColor=#FFFFFF;fontColor=#B3B3B3;" parent="1" vertex="1">
          <mxGeometry x="598.25" y="1028" width="60" height="60" as="geometry" />
        </mxCell>
        <mxCell id="L46YAxD7cRD_iRhM08Rc-12" value="&lt;div&gt;&lt;font style=&quot;font-size: 14px&quot;&gt;&lt;b&gt;&lt;font style=&quot;font-size: 14px&quot;&gt;CAT&lt;/font&gt;&lt;/b&gt;&lt;/font&gt;&lt;/div&gt;" style="ellipse;whiteSpace=wrap;html=1;aspect=fixed;strokeColor=#3333FF;strokeWidth=2;fillColor=#FFFFFF;fontColor=#3333FF;" parent="1" vertex="1">
          <mxGeometry x="598.25" y="1108" width="60" height="60" as="geometry" />
        </mxCell>
        <mxCell id="L46YAxD7cRD_iRhM08Rc-13" value="&lt;font&gt;&lt;b&gt;&lt;font style=&quot;font-size: 14px&quot;&gt;Orchestrator UI&lt;/font&gt;&lt;/b&gt;&lt;/font&gt;" style="rounded=1;whiteSpace=wrap;html=1;strokeColor=#CCCCCC;strokeWidth=2;fillColor=#FFFFFF;fontColor=#B3B3B3;" parent="1" vertex="1">
          <mxGeometry x="799.5" y="888" width="140" height="60" as="geometry" />
        </mxCell>
        <mxCell id="L46YAxD7cRD_iRhM08Rc-14" value="&lt;font&gt;&lt;b&gt;&lt;font style=&quot;font-size: 14px&quot;&gt;Catalog UI&lt;/font&gt;&lt;/b&gt;&lt;/font&gt;" style="rounded=1;whiteSpace=wrap;html=1;strokeColor=#3333FF;strokeWidth=2;fillColor=#FFFFFF;fontColor=#3333FF;" parent="1" vertex="1">
          <mxGeometry x="799.5" y="958" width="140" height="60" as="geometry" />
        </mxCell>
        <mxCell id="L46YAxD7cRD_iRhM08Rc-15" value="&lt;font size=&quot;1&quot;&gt;&lt;b style=&quot;font-size: 14px&quot;&gt;Users&lt;/b&gt;&lt;/font&gt;" style="shape=umlActor;verticalLabelPosition=bottom;labelBackgroundColor=#ffffff;verticalAlign=top;html=1;strokeColor=#3333FF;strokeWidth=2;fillColor=#FFFFFF;fontColor=#3333FF;" parent="1" vertex="1">
          <mxGeometry x="1089.5" y="1028" width="30" height="60" as="geometry" />
        </mxCell>
        <mxCell id="L46YAxD7cRD_iRhM08Rc-16" value="" style="endArrow=none;html=1;strokeColor=#CCCCCC;strokeWidth=2;exitX=1;exitY=0.5;exitDx=0;exitDy=0;endFill=0;fontColor=#B3B3B3;" parent="1" source="L46YAxD7cRD_iRhM08Rc-11" target="L46YAxD7cRD_iRhM08Rc-13" edge="1">
          <mxGeometry width="50" height="50" relative="1" as="geometry">
            <mxPoint x="649.5" y="1488" as="sourcePoint" />
            <mxPoint x="699.5" y="1438" as="targetPoint" />
          </mxGeometry>
        </mxCell>
        <mxCell id="L46YAxD7cRD_iRhM08Rc-17" value="" style="endArrow=none;html=1;strokeColor=#3333FF;strokeWidth=2;exitX=1;exitY=0.5;exitDx=0;exitDy=0;entryX=0;entryY=0.5;entryDx=0;entryDy=0;endFill=0;fontColor=#3333FF;" parent="1" source="L46YAxD7cRD_iRhM08Rc-12" target="L46YAxD7cRD_iRhM08Rc-14" edge="1">
          <mxGeometry width="50" height="50" relative="1" as="geometry">
            <mxPoint x="652" y="1078" as="sourcePoint" />
            <mxPoint x="712" y="1078" as="targetPoint" />
          </mxGeometry>
        </mxCell>
        <mxCell id="L46YAxD7cRD_iRhM08Rc-18" value="" style="endArrow=none;html=1;strokeColor=#CCCCCC;strokeWidth=2;exitX=1;exitY=0.5;exitDx=0;exitDy=0;entryX=0.5;entryY=0.5;entryDx=0;entryDy=0;entryPerimeter=0;fontColor=#B3B3B3;" parent="1" source="L46YAxD7cRD_iRhM08Rc-13" target="L46YAxD7cRD_iRhM08Rc-15" edge="1">
          <mxGeometry width="50" height="50" relative="1" as="geometry">
            <mxPoint x="649.5" y="1488" as="sourcePoint" />
            <mxPoint x="699.5" y="1438" as="targetPoint" />
          </mxGeometry>
        </mxCell>
        <mxCell id="L46YAxD7cRD_iRhM08Rc-19" value="" style="endArrow=none;html=1;strokeColor=#3333FF;strokeWidth=2;exitX=1;exitY=0.5;exitDx=0;exitDy=0;entryX=0.5;entryY=0.5;entryDx=0;entryDy=0;entryPerimeter=0;fontColor=#B3B3B3;" parent="1" source="L46YAxD7cRD_iRhM08Rc-14" target="L46YAxD7cRD_iRhM08Rc-15" edge="1">
          <mxGeometry width="50" height="50" relative="1" as="geometry">
            <mxPoint x="832" y="1078" as="sourcePoint" />
            <mxPoint x="1009.5" y="1106" as="targetPoint" />
          </mxGeometry>
        </mxCell>
        <mxCell id="L46YAxD7cRD_iRhM08Rc-20" value="&lt;font style=&quot;font-size: 14px&quot;&gt;&lt;b&gt;Interactive Visualization UI&lt;br&gt;&lt;/b&gt;&lt;/font&gt;" style="rounded=1;whiteSpace=wrap;html=1;strokeColor=#CCCCCC;strokeWidth=2;fillColor=#FFFFFF;fontColor=#B3B3B3;" parent="1" vertex="1">
          <mxGeometry x="799.5" y="1168" width="140" height="60" as="geometry" />
        </mxCell>
        <mxCell id="L46YAxD7cRD_iRhM08Rc-21" value="&lt;font style=&quot;font-size: 14px&quot;&gt;&lt;b&gt;Jupyter Notebooks&lt;/b&gt;&lt;/font&gt;" style="rounded=1;whiteSpace=wrap;html=1;strokeColor=#3333FF;strokeWidth=2;fillColor=#FFFFFF;fontColor=#3333FF;" parent="1" vertex="1">
          <mxGeometry x="819.5" y="1098" width="120" height="60" as="geometry" />
        </mxCell>
        <mxCell id="L46YAxD7cRD_iRhM08Rc-22" value="&lt;font&gt;&lt;b&gt;&lt;font style=&quot;font-size: 14px&quot;&gt;LIB&lt;/font&gt;&lt;/b&gt;&lt;/font&gt;" style="rounded=1;whiteSpace=wrap;html=1;strokeColor=#3333FF;strokeWidth=2;fillColor=#FFFFFF;fontColor=#3333FF;" parent="1" vertex="1">
          <mxGeometry x="799.5" y="1098" width="40" height="60" as="geometry" />
        </mxCell>
        <mxCell id="L46YAxD7cRD_iRhM08Rc-23" value="" style="endArrow=none;html=1;strokeColor=#3333FF;strokeWidth=2;exitX=1;exitY=0.5;exitDx=0;exitDy=0;entryX=0;entryY=0.5;entryDx=0;entryDy=0;endFill=0;fontColor=#B3B3B3;" parent="1" source="L46YAxD7cRD_iRhM08Rc-5" target="L46YAxD7cRD_iRhM08Rc-22" edge="1">
          <mxGeometry width="50" height="50" relative="1" as="geometry">
            <mxPoint x="649.5" y="1468" as="sourcePoint" />
            <mxPoint x="699.5" y="1418" as="targetPoint" />
          </mxGeometry>
        </mxCell>
        <mxCell id="L46YAxD7cRD_iRhM08Rc-24" value="" style="endArrow=none;html=1;strokeColor=#CCCCCC;strokeWidth=2;exitX=1;exitY=0.5;exitDx=0;exitDy=0;entryX=0;entryY=0.75;entryDx=0;entryDy=0;endFill=0;fontColor=#B3B3B3;" parent="1" source="L46YAxD7cRD_iRhM08Rc-6" target="L46YAxD7cRD_iRhM08Rc-22" edge="1">
          <mxGeometry width="50" height="50" relative="1" as="geometry">
            <mxPoint x="652" y="1358" as="sourcePoint" />
            <mxPoint x="699.5" y="1368" as="targetPoint" />
          </mxGeometry>
        </mxCell>
        <mxCell id="L46YAxD7cRD_iRhM08Rc-25" value="" style="endArrow=none;html=1;strokeColor=#3333FF;strokeWidth=2;entryX=0;entryY=0.25;entryDx=0;entryDy=0;exitX=1;exitY=0.5;exitDx=0;exitDy=0;endFill=0;fontColor=#3333FF;" parent="1" source="L46YAxD7cRD_iRhM08Rc-3" target="L46YAxD7cRD_iRhM08Rc-22" edge="1">
          <mxGeometry width="50" height="50" relative="1" as="geometry">
            <mxPoint x="644.5" y="1276" as="sourcePoint" />
            <mxPoint x="699.5" y="1418" as="targetPoint" />
          </mxGeometry>
        </mxCell>
        <mxCell id="L46YAxD7cRD_iRhM08Rc-26" value="" style="endArrow=none;html=1;strokeColor=#CCCCCC;strokeWidth=2;exitX=1;exitY=0.5;exitDx=0;exitDy=0;entryX=0;entryY=0.5;entryDx=0;entryDy=0;endFill=0;fontColor=#B3B3B3;" parent="1" source="L46YAxD7cRD_iRhM08Rc-3" target="L46YAxD7cRD_iRhM08Rc-20" edge="1">
          <mxGeometry width="50" height="50" relative="1" as="geometry">
            <mxPoint x="649.5" y="1468" as="sourcePoint" />
            <mxPoint x="699.5" y="1418" as="targetPoint" />
          </mxGeometry>
        </mxCell>
        <mxCell id="L46YAxD7cRD_iRhM08Rc-27" value="" style="endArrow=none;html=1;strokeColor=#CCCCCC;strokeWidth=2;exitX=1;exitY=0.5;exitDx=0;exitDy=0;entryX=0;entryY=0.5;entryDx=0;entryDy=0;endFill=0;fontColor=#B3B3B3;" parent="1" source="L46YAxD7cRD_iRhM08Rc-6" target="L46YAxD7cRD_iRhM08Rc-20" edge="1">
          <mxGeometry width="50" height="50" relative="1" as="geometry">
            <mxPoint x="649.5" y="1468" as="sourcePoint" />
            <mxPoint x="699.5" y="1418" as="targetPoint" />
          </mxGeometry>
        </mxCell>
        <mxCell id="L46YAxD7cRD_iRhM08Rc-28" value="&lt;font size=&quot;1&quot;&gt;&lt;b style=&quot;font-size: 14px&quot;&gt;Excel Spreadsheets&lt;/b&gt;&lt;/font&gt;" style="rounded=0;whiteSpace=wrap;html=1;strokeColor=#3333FF;strokeWidth=2;fillColor=#FFFFFF;fontColor=#3333FF;" parent="1" vertex="1">
          <mxGeometry x="799.5" y="1028" width="140" height="60" as="geometry" />
        </mxCell>
        <mxCell id="L46YAxD7cRD_iRhM08Rc-29" value="" style="endArrow=none;html=1;strokeColor=#3333FF;strokeWidth=2;exitX=1;exitY=0.5;exitDx=0;exitDy=0;entryX=0;entryY=0.5;entryDx=0;entryDy=0;endFill=0;fontColor=#3333FF;" parent="1" source="L46YAxD7cRD_iRhM08Rc-3" target="L46YAxD7cRD_iRhM08Rc-28" edge="1">
          <mxGeometry width="50" height="50" relative="1" as="geometry">
            <mxPoint x="649.5" y="1468" as="sourcePoint" />
            <mxPoint x="699.5" y="1418" as="targetPoint" />
          </mxGeometry>
        </mxCell>
        <mxCell id="L46YAxD7cRD_iRhM08Rc-30" value="" style="endArrow=none;html=1;strokeColor=#3333FF;strokeWidth=2;entryX=1;entryY=0.5;entryDx=0;entryDy=0;exitX=0.5;exitY=0.5;exitDx=0;exitDy=0;exitPerimeter=0;fontColor=#3333FF;" parent="1" source="L46YAxD7cRD_iRhM08Rc-15" target="L46YAxD7cRD_iRhM08Rc-28" edge="1">
          <mxGeometry width="50" height="50" relative="1" as="geometry">
            <mxPoint x="649.5" y="1468" as="sourcePoint" />
            <mxPoint x="699.5" y="1418" as="targetPoint" />
          </mxGeometry>
        </mxCell>
        <mxCell id="L46YAxD7cRD_iRhM08Rc-31" value="" style="endArrow=none;html=1;strokeColor=#3333FF;strokeWidth=2;entryX=1;entryY=0.5;entryDx=0;entryDy=0;exitX=0.5;exitY=0.5;exitDx=0;exitDy=0;exitPerimeter=0;fontColor=#3333FF;" parent="1" source="L46YAxD7cRD_iRhM08Rc-15" target="L46YAxD7cRD_iRhM08Rc-21" edge="1">
          <mxGeometry width="50" height="50" relative="1" as="geometry">
            <mxPoint x="1089.5" y="1258" as="sourcePoint" />
            <mxPoint x="889.5" y="1268" as="targetPoint" />
          </mxGeometry>
        </mxCell>
        <mxCell id="L46YAxD7cRD_iRhM08Rc-32" value="" style="endArrow=none;html=1;strokeColor=#CCCCCC;strokeWidth=2;entryX=1;entryY=0.5;entryDx=0;entryDy=0;exitX=0.5;exitY=0.5;exitDx=0;exitDy=0;exitPerimeter=0;fontColor=#B3B3B3;" parent="1" source="L46YAxD7cRD_iRhM08Rc-15" target="L46YAxD7cRD_iRhM08Rc-20" edge="1">
          <mxGeometry width="50" height="50" relative="1" as="geometry">
            <mxPoint x="1099.5" y="1178" as="sourcePoint" />
            <mxPoint x="899.5" y="1278" as="targetPoint" />
          </mxGeometry>
        </mxCell>
        <mxCell id="L46YAxD7cRD_iRhM08Rc-33" value="&lt;div&gt;&lt;font size=&quot;1&quot;&gt;&lt;b style=&quot;font-size: 14px&quot;&gt;Downstream&lt;/b&gt;&lt;/font&gt;&lt;/div&gt;&lt;div&gt;&lt;font size=&quot;1&quot;&gt;&lt;b style=&quot;font-size: 14px&quot;&gt;Systems&lt;/b&gt;&lt;/font&gt;&lt;/div&gt;" style="whiteSpace=wrap;html=1;aspect=fixed;strokeColor=#CCCCCC;strokeWidth=2;fillColor=#FFFFFF;fontColor=#B3B3B3;" parent="1" vertex="1">
          <mxGeometry x="1049.5" y="1342" width="96" height="96" as="geometry" />
        </mxCell>
        <mxCell id="L46YAxD7cRD_iRhM08Rc-34" value="" style="endArrow=none;html=1;strokeColor=#CCCCCC;strokeWidth=2;entryX=0;entryY=0.5;entryDx=0;entryDy=0;curved=1;endFill=0;fontColor=#B3B3B3;" parent="1" source="L46YAxD7cRD_iRhM08Rc-3" target="L46YAxD7cRD_iRhM08Rc-33" edge="1">
          <mxGeometry width="50" height="50" relative="1" as="geometry">
            <mxPoint x="619.5" y="1348" as="sourcePoint" />
            <mxPoint x="669.5" y="1298" as="targetPoint" />
            <Array as="points">
              <mxPoint x="829.5" y="1358" />
            </Array>
          </mxGeometry>
        </mxCell>
        <mxCell id="L46YAxD7cRD_iRhM08Rc-35" value="" style="endArrow=none;html=1;strokeColor=#CCCCCC;strokeWidth=2;entryX=0;entryY=0.5;entryDx=0;entryDy=0;curved=1;exitX=0.975;exitY=0.633;exitDx=0;exitDy=0;exitPerimeter=0;endFill=0;fontColor=#B3B3B3;" parent="1" source="L46YAxD7cRD_iRhM08Rc-5" target="L46YAxD7cRD_iRhM08Rc-33" edge="1">
          <mxGeometry width="50" height="50" relative="1" as="geometry">
            <mxPoint x="646.8109943238965" y="1280.4140883290438" as="sourcePoint" />
            <mxPoint x="1059.5" y="1397" as="targetPoint" />
            <Array as="points">
              <mxPoint x="839.5" y="1368" />
            </Array>
          </mxGeometry>
        </mxCell>
        <mxCell id="L46YAxD7cRD_iRhM08Rc-36" value="" style="endArrow=none;html=1;strokeColor=#CCCCCC;strokeWidth=2;entryX=0;entryY=0.5;entryDx=0;entryDy=0;curved=1;exitX=1;exitY=0.5;exitDx=0;exitDy=0;endFill=0;fontColor=#B3B3B3;" parent="1" source="L46YAxD7cRD_iRhM08Rc-6" target="L46YAxD7cRD_iRhM08Rc-33" edge="1">
          <mxGeometry width="50" height="50" relative="1" as="geometry">
            <mxPoint x="656.8109943238965" y="1290.4140883290438" as="sourcePoint" />
            <mxPoint x="1069.5" y="1407" as="targetPoint" />
            <Array as="points">
              <mxPoint x="849.5" y="1378" />
            </Array>
          </mxGeometry>
        </mxCell>
        <mxCell id="L46YAxD7cRD_iRhM08Rc-37" value="" style="endArrow=none;html=1;strokeColor=#CCCCCC;strokeWidth=2;curved=1;exitX=1;exitY=1;exitDx=0;exitDy=0;entryX=0;entryY=0.5;entryDx=0;entryDy=0;endFill=0;fontColor=#B3B3B3;" parent="1" source="L46YAxD7cRD_iRhM08Rc-12" target="L46YAxD7cRD_iRhM08Rc-33" edge="1">
          <mxGeometry width="50" height="50" relative="1" as="geometry">
            <mxPoint x="666.8109943238965" y="1300.4140883290438" as="sourcePoint" />
            <mxPoint x="1039.5" y="1388" as="targetPoint" />
            <Array as="points">
              <mxPoint x="859.5" y="1388" />
            </Array>
          </mxGeometry>
        </mxCell>
        <mxCell id="L46YAxD7cRD_iRhM08Rc-38" value="" style="endArrow=none;html=1;strokeColor=#CCCCCC;strokeWidth=2;curved=1;exitX=1;exitY=1;exitDx=0;exitDy=0;entryX=0;entryY=0.5;entryDx=0;entryDy=0;endFill=0;fontColor=#B3B3B3;" parent="1" source="L46YAxD7cRD_iRhM08Rc-11" target="L46YAxD7cRD_iRhM08Rc-33" edge="1">
          <mxGeometry width="50" height="50" relative="1" as="geometry">
            <mxPoint x="676.8109943238965" y="1310.4140883290438" as="sourcePoint" />
            <mxPoint x="1039.5" y="1388" as="targetPoint" />
            <Array as="points">
              <mxPoint x="839.5" y="1398" />
            </Array>
          </mxGeometry>
        </mxCell>
        <mxCell id="L46YAxD7cRD_iRhM08Rc-39" value="&lt;font style=&quot;font-size: 14px&quot;&gt;&lt;b&gt;Data Upload UI&lt;br&gt;&lt;/b&gt;&lt;/font&gt;" style="rounded=1;whiteSpace=wrap;html=1;strokeColor=#CCCCCC;strokeWidth=2;fillColor=#FFFFFF;fontColor=#B3B3B3;" parent="1" vertex="1">
          <mxGeometry x="799.5" y="1238" width="140" height="60" as="geometry" />
        </mxCell>
        <mxCell id="L46YAxD7cRD_iRhM08Rc-40" value="&lt;div&gt;&lt;font style=&quot;font-size: 14px&quot;&gt;&lt;b&gt;&lt;font style=&quot;font-size: 14px&quot;&gt;File Writer&lt;br&gt;&lt;/font&gt;&lt;/b&gt;&lt;/font&gt;&lt;/div&gt;" style="ellipse;whiteSpace=wrap;html=1;aspect=fixed;strokeColor=#CCCCCC;strokeWidth=2;fillColor=#FFFFFF;fontColor=#B3B3B3;" parent="1" vertex="1">
          <mxGeometry x="595.75" y="1278" width="60" height="60" as="geometry" />
        </mxCell>
        <mxCell id="L46YAxD7cRD_iRhM08Rc-41" value="" style="endArrow=classic;html=1;strokeColor=#CCCCCC;strokeWidth=2;exitX=0;exitY=0.5;exitDx=0;exitDy=0;entryX=1;entryY=0.5;entryDx=0;entryDy=0;curved=1;fontColor=#B3B3B3;" parent="1" source="L46YAxD7cRD_iRhM08Rc-40" target="L46YAxD7cRD_iRhM08Rc-1" edge="1">
          <mxGeometry width="50" height="50" relative="1" as="geometry">
            <mxPoint x="619.5" y="1348" as="sourcePoint" />
            <mxPoint x="669.5" y="1298" as="targetPoint" />
            <Array as="points">
              <mxPoint x="499.5" y="1348" />
            </Array>
          </mxGeometry>
        </mxCell>
        <mxCell id="L46YAxD7cRD_iRhM08Rc-42" value="" style="endArrow=none;html=1;strokeColor=#CCCCCC;strokeWidth=2;entryX=0;entryY=0.5;entryDx=0;entryDy=0;exitX=1;exitY=0.5;exitDx=0;exitDy=0;fontColor=#B3B3B3;" parent="1" source="L46YAxD7cRD_iRhM08Rc-40" target="L46YAxD7cRD_iRhM08Rc-39" edge="1">
          <mxGeometry width="50" height="50" relative="1" as="geometry">
            <mxPoint x="619.5" y="1348" as="sourcePoint" />
            <mxPoint x="669.5" y="1298" as="targetPoint" />
          </mxGeometry>
        </mxCell>
        <mxCell id="L46YAxD7cRD_iRhM08Rc-43" value="" style="endArrow=none;html=1;strokeColor=#CCCCCC;strokeWidth=2;entryX=0;entryY=0.5;entryDx=0;entryDy=0;exitX=0.958;exitY=0.667;exitDx=0;exitDy=0;exitPerimeter=0;fontColor=#B3B3B3;" parent="1" source="L46YAxD7cRD_iRhM08Rc-12" target="L46YAxD7cRD_iRhM08Rc-39" edge="1">
          <mxGeometry width="50" height="50" relative="1" as="geometry">
            <mxPoint x="619.5" y="1348" as="sourcePoint" />
            <mxPoint x="669.5" y="1298" as="targetPoint" />
          </mxGeometry>
        </mxCell>
        <mxCell id="L46YAxD7cRD_iRhM08Rc-44" style="edgeStyle=orthogonalEdgeStyle;curved=1;orthogonalLoop=1;jettySize=auto;html=1;exitX=0.5;exitY=0;exitDx=0;exitDy=0;entryX=0;entryY=0.5;entryDx=0;entryDy=0;endArrow=none;endFill=0;strokeColor=#CCCCCC;strokeWidth=2;fontColor=#B3B3B3;" parent="1" source="L46YAxD7cRD_iRhM08Rc-45" target="L46YAxD7cRD_iRhM08Rc-11" edge="1">
          <mxGeometry relative="1" as="geometry" />
        </mxCell>
        <mxCell id="L46YAxD7cRD_iRhM08Rc-45" value="" style="ellipse;whiteSpace=wrap;html=1;aspect=fixed;strokeColor=#CCCCCC;strokeWidth=2;fillColor=#FFFFFF;fontColor=#B3B3B3;" parent="1" vertex="1">
          <mxGeometry x="209.5" y="1263" width="80" height="80" as="geometry" />
        </mxCell>
        <mxCell id="L46YAxD7cRD_iRhM08Rc-46" value="" style="ellipse;whiteSpace=wrap;html=1;aspect=fixed;strokeColor=#CCCCCC;strokeWidth=2;fillColor=#FFFFFF;fontColor=#B3B3B3;" parent="1" vertex="1">
          <mxGeometry x="219.5" y="1273" width="80" height="80" as="geometry" />
        </mxCell>
        <mxCell id="L46YAxD7cRD_iRhM08Rc-47" value="" style="ellipse;whiteSpace=wrap;html=1;aspect=fixed;strokeColor=#CCCCCC;strokeWidth=2;fillColor=#FFFFFF;fontColor=#B3B3B3;" parent="1" vertex="1">
          <mxGeometry x="229.5" y="1283" width="80" height="80" as="geometry" />
        </mxCell>
        <mxCell id="L46YAxD7cRD_iRhM08Rc-48" style="edgeStyle=orthogonalEdgeStyle;curved=1;orthogonalLoop=1;jettySize=auto;html=1;entryX=0;entryY=0.5;entryDx=0;entryDy=0;endArrow=none;endFill=0;strokeColor=#CCCCCC;strokeWidth=2;fontColor=#B3B3B3;" parent="1" target="L46YAxD7cRD_iRhM08Rc-2" edge="1">
          <mxGeometry relative="1" as="geometry">
            <mxPoint x="319.5" y="1333" as="sourcePoint" />
          </mxGeometry>
        </mxCell>
        <mxCell id="L46YAxD7cRD_iRhM08Rc-49" style="edgeStyle=orthogonalEdgeStyle;curved=1;orthogonalLoop=1;jettySize=auto;html=1;exitX=1;exitY=0.5;exitDx=0;exitDy=0;entryX=0;entryY=0.5;entryDx=0;entryDy=0;endArrow=none;endFill=0;strokeColor=#3333FF;strokeWidth=2;fontColor=#3333FF;" parent="1" source="L46YAxD7cRD_iRhM08Rc-51" target="L46YAxD7cRD_iRhM08Rc-1" edge="1">
          <mxGeometry relative="1" as="geometry">
            <Array as="points">
              <mxPoint x="369.5" y="1333" />
              <mxPoint x="369.5" y="1348" />
            </Array>
          </mxGeometry>
        </mxCell>
        <mxCell id="L46YAxD7cRD_iRhM08Rc-50" style="edgeStyle=orthogonalEdgeStyle;curved=1;orthogonalLoop=1;jettySize=auto;html=1;exitX=1;exitY=0.5;exitDx=0;exitDy=0;entryX=0;entryY=0;entryDx=0;entryDy=23;entryPerimeter=0;endArrow=none;endFill=0;strokeColor=#CCCCCC;strokeWidth=2;fontColor=#B3B3B3;" parent="1" source="L46YAxD7cRD_iRhM08Rc-51" target="L46YAxD7cRD_iRhM08Rc-4" edge="1">
          <mxGeometry relative="1" as="geometry" />
        </mxCell>
        <mxCell id="L46YAxD7cRD_iRhM08Rc-51" value="&lt;div&gt;&lt;font size=&quot;1&quot;&gt;&lt;b style=&quot;font-size: 14px&quot;&gt;Data Processing&lt;/b&gt;&lt;/font&gt;&lt;/div&gt;&lt;div&gt;&lt;font size=&quot;1&quot;&gt;&lt;b style=&quot;font-size: 14px&quot;&gt;Functions&lt;/b&gt;&lt;/font&gt;&lt;/div&gt;" style="ellipse;whiteSpace=wrap;html=1;aspect=fixed;strokeColor=#3333FF;strokeWidth=2;fillColor=#FFFFFF;fontColor=#3333FF;" parent="1" vertex="1">
          <mxGeometry x="239.5" y="1293" width="80" height="80" as="geometry" />
        </mxCell>
        <mxCell id="L46YAxD7cRD_iRhM08Rc-52" style="edgeStyle=orthogonalEdgeStyle;curved=1;orthogonalLoop=1;jettySize=auto;html=1;exitX=1;exitY=0.5;exitDx=0;exitDy=0;endArrow=none;endFill=0;strokeColor=#CCCCCC;strokeWidth=2;fontColor=#B3B3B3;" parent="1" source="L46YAxD7cRD_iRhM08Rc-53" edge="1">
          <mxGeometry relative="1" as="geometry">
            <mxPoint x="209.5" y="1305" as="targetPoint" />
          </mxGeometry>
        </mxCell>
        <mxCell id="L46YAxD7cRD_iRhM08Rc-53" value="&lt;font style=&quot;font-size: 14px&quot;&gt;&lt;b&gt;Upstream Sources&lt;/b&gt;&lt;/font&gt;" style="whiteSpace=wrap;html=1;aspect=fixed;strokeColor=#CCCCCC;strokeWidth=2;fillColor=#FFFFFF;fontColor=#B3B3B3;" parent="1" vertex="1">
          <mxGeometry x="29.5" y="1267" width="96" height="96" as="geometry" />
        </mxCell>
        <mxCell id="L46YAxD7cRD_iRhM08Rc-54" value="" style="endArrow=none;dashed=1;html=1;strokeColor=#3333FF;strokeWidth=1;fontColor=#B3B3B3;" parent="1" edge="1">
          <mxGeometry width="50" height="50" relative="1" as="geometry">
            <mxPoint x="169.5" y="1618" as="sourcePoint" />
            <mxPoint x="169.5" y="868" as="targetPoint" />
          </mxGeometry>
        </mxCell>
        <mxCell id="L46YAxD7cRD_iRhM08Rc-55" value="" style="endArrow=none;dashed=1;html=1;strokeColor=#3333FF;strokeWidth=1;fontColor=#B3B3B3;" parent="1" edge="1">
          <mxGeometry width="50" height="50" relative="1" as="geometry">
            <mxPoint x="369.5" y="1613" as="sourcePoint" />
            <mxPoint x="369.5" y="863" as="targetPoint" />
          </mxGeometry>
        </mxCell>
        <mxCell id="L46YAxD7cRD_iRhM08Rc-56" value="" style="endArrow=none;dashed=1;html=1;strokeColor=#3333FF;strokeWidth=1;fontColor=#B3B3B3;" parent="1" edge="1">
          <mxGeometry width="50" height="50" relative="1" as="geometry">
            <mxPoint x="539.5" y="1613" as="sourcePoint" />
            <mxPoint x="539.5" y="863" as="targetPoint" />
          </mxGeometry>
        </mxCell>
        <mxCell id="L46YAxD7cRD_iRhM08Rc-57" value="" style="endArrow=none;dashed=1;html=1;strokeColor=#3333FF;strokeWidth=1;fontColor=#B3B3B3;" parent="1" edge="1">
          <mxGeometry width="50" height="50" relative="1" as="geometry">
            <mxPoint x="729.5" y="1613" as="sourcePoint" />
            <mxPoint x="729.5" y="863" as="targetPoint" />
          </mxGeometry>
        </mxCell>
        <mxCell id="L46YAxD7cRD_iRhM08Rc-58" value="" style="endArrow=none;dashed=1;html=1;strokeColor=#3333FF;strokeWidth=1;fontColor=#B3B3B3;" parent="1" edge="1">
          <mxGeometry width="50" height="50" relative="1" as="geometry">
            <mxPoint x="999.5" y="1613" as="sourcePoint" />
            <mxPoint x="999.5" y="863" as="targetPoint" />
          </mxGeometry>
        </mxCell>
        <mxCell id="L46YAxD7cRD_iRhM08Rc-59" value="&lt;b&gt;&lt;font style=&quot;font-size: 14px&quot;&gt;Data Prcessing Layer&lt;/font&gt;&lt;/b&gt;" style="text;html=1;strokeColor=#CCCCCC;fillColor=none;align=center;verticalAlign=middle;whiteSpace=wrap;rounded=0;fontColor=#3333FF;" parent="1" vertex="1">
          <mxGeometry x="202" y="1598" width="155" height="20" as="geometry" />
        </mxCell>
        <mxCell id="L46YAxD7cRD_iRhM08Rc-60" value="&lt;b&gt;&lt;font style=&quot;font-size: 14px&quot;&gt;Storage Layer&lt;/font&gt;&lt;/b&gt;" style="text;html=1;strokeColor=#CCCCCC;fillColor=none;align=center;verticalAlign=middle;whiteSpace=wrap;rounded=0;fontColor=#3333FF;" parent="1" vertex="1">
          <mxGeometry x="374.5" y="1598" width="155" height="20" as="geometry" />
        </mxCell>
        <mxCell id="L46YAxD7cRD_iRhM08Rc-61" value="&lt;b&gt;&lt;font style=&quot;font-size: 14px&quot;&gt;API Layer&lt;/font&gt;&lt;/b&gt;" style="text;html=1;strokeColor=#CCCCCC;fillColor=none;align=center;verticalAlign=middle;whiteSpace=wrap;rounded=0;fontColor=#3333FF;" parent="1" vertex="1">
          <mxGeometry x="549.5" y="1598" width="155" height="20" as="geometry" />
        </mxCell>
        <mxCell id="L46YAxD7cRD_iRhM08Rc-62" value="&lt;b&gt;&lt;font style=&quot;font-size: 14px&quot;&gt;UI Layer&lt;/font&gt;&lt;/b&gt;" style="text;html=1;strokeColor=#CCCCCC;fillColor=none;align=center;verticalAlign=middle;whiteSpace=wrap;rounded=0;fontColor=#3333FF;" parent="1" vertex="1">
          <mxGeometry x="792" y="1598" width="155" height="20" as="geometry" />
        </mxCell>
        <mxCell id="L46YAxD7cRD_iRhM08Rc-63" value="&lt;b&gt;&lt;font style=&quot;font-size: 14px&quot;&gt;Clients&lt;/font&gt;&lt;/b&gt;" style="text;html=1;strokeColor=#CCCCCC;fillColor=none;align=center;verticalAlign=middle;whiteSpace=wrap;rounded=0;fontColor=#3333FF;" parent="1" vertex="1">
          <mxGeometry x="1003.5" y="1598" width="155" height="20" as="geometry" />
        </mxCell>
        <mxCell id="L46YAxD7cRD_iRhM08Rc-64" value="&lt;font size=&quot;1&quot;&gt;&lt;b style=&quot;font-size: 14px&quot;&gt;Upstream&lt;/b&gt;&lt;/font&gt;" style="text;html=1;strokeColor=#CCCCCC;fillColor=none;align=center;verticalAlign=middle;whiteSpace=wrap;rounded=0;fontColor=#B3B3B3;" parent="1" vertex="1">
          <mxGeometry y="1598" width="155" height="20" as="geometry" />
        </mxCell>
        <mxCell id="L46YAxD7cRD_iRhM08Rc-65" value="" style="endArrow=none;html=1;strokeColor=#CCCCCC;strokeWidth=2;entryX=1;entryY=0.5;entryDx=0;entryDy=0;exitX=0.5;exitY=0.5;exitDx=0;exitDy=0;exitPerimeter=0;fontColor=#B3B3B3;" parent="1" source="L46YAxD7cRD_iRhM08Rc-15" target="L46YAxD7cRD_iRhM08Rc-39" edge="1">
          <mxGeometry width="50" height="50" relative="1" as="geometry">
            <mxPoint x="1114.5" y="1068" as="sourcePoint" />
            <mxPoint x="949.5" y="1208" as="targetPoint" />
          </mxGeometry>
        </mxCell>
        <mxCell id="L46YAxD7cRD_iRhM08Rc-66" style="edgeStyle=orthogonalEdgeStyle;curved=1;orthogonalLoop=1;jettySize=auto;html=1;exitX=0.5;exitY=0;exitDx=0;exitDy=0;entryX=0;entryY=0.5;entryDx=0;entryDy=0;endArrow=none;endFill=0;strokeColor=#3333FF;strokeWidth=2;fontColor=#3333FF;" parent="1" source="L46YAxD7cRD_iRhM08Rc-51" target="L46YAxD7cRD_iRhM08Rc-12" edge="1">
          <mxGeometry relative="1" as="geometry" />
        </mxCell>
        <mxCell id="L46YAxD7cRD_iRhM08Rc-67" value="PI-1 STATE" style="text;html=1;strokeColor=none;fillColor=none;align=center;verticalAlign=middle;whiteSpace=wrap;rounded=0;fontColor=#3333FF;fontSize=26;" parent="1" vertex="1">
          <mxGeometry x="460" y="840" width="220.5" height="20" as="geometry" />
        </mxCell>
        <mxCell id="9WKmSo7vCTaAKZTt5fdI-1" value="" style="endArrow=none;html=1;strokeColor=#3333FF;strokeWidth=2;entryX=0;entryY=0.25;entryDx=0;entryDy=0;endFill=0;" edge="1" parent="1">
          <mxGeometry width="50" height="50" relative="1" as="geometry">
            <mxPoint x="658.2544382503428" y="1138.330169846441" as="sourcePoint" />
            <mxPoint x="799.82" y="1117.67" as="targetPoint" />
          </mxGeometry>
        </mxCell>
      </root>
    </mxGraphModel>
  </diagram>
</mxfile>
